<?xml version="1.0" encoding="UTF-8"?>
<svg xmlns="http://www.w3.org/2000/svg" viewBox="0 0 680 504" width="680" height="504">
<defs>
  <marker id="arr" viewBox="0 0 10 10" refX="8" refY="5"
          markerWidth="6" markerHeight="6" orient="auto-start-reverse">
    <path d="M2 1L8 5L2 9" fill="none" stroke="#888780"
          stroke-width="1.5" stroke-linecap="round" stroke-linejoin="round"/>
  </marker>
</defs>

  <!-- ROW 1: LeptonInjector -->
  <rect x="299" y="30" width="220" height="56" rx="8" fill="#EEEDFE" stroke="#534AB7" stroke-width="0.75"/>
  <text x="409" y="48" text-anchor="middle" dominant-baseline="central" font-family="Arial, Helvetica, sans-serif" font-size="14px" font-weight="500" fill="#3C3489">&#957;&#956; / &#957;&#772;&#956;</text>
  <text x="409" y="68" text-anchor="middle" dominant-baseline="central" font-family="Arial, Helvetica, sans-serif" font-size="12px" font-weight="400" fill="#534AB7">LeptonInjector</text>

  <!-- Root branch arrows -->
  <path d="M409 86 L409 110 L255 110 L255 134" stroke="#888780" stroke-width="1.2" fill="none" marker-end="url(#arr)"/>
  <path d="M409 86 L409 110 L563 110 L563 134" stroke="#888780" stroke-width="1.2" fill="none" marker-end="url(#arr)"/>

  <!-- ROW 2: mu and hadrons -->
  <rect x="170" y="134" width="170" height="44" rx="8" fill="#EEEDFE" stroke="#534AB7" stroke-width="0.75"/>
  <text x="255" y="156" text-anchor="middle" dominant-baseline="central" font-family="Arial, Helvetica, sans-serif" font-size="14px" font-weight="500" fill="#3C3489">&#956;&#8315; / &#956;&#8314;</text>
  <rect x="498" y="134" width="130" height="44" rx="8" fill="#EEEDFE" stroke="#534AB7" stroke-width="0.75"/>
  <text x="563" y="156" text-anchor="middle" dominant-baseline="central" font-family="Arial, Helvetica, sans-serif" font-size="14px" font-weight="500" fill="#3C3489">Hadrons</text>
  <line x1="255" y1="178" x2="255" y2="226" stroke="#888780" stroke-width="1.2" marker-end="url(#arr)" fill="none"/>
  <line x1="563" y1="178" x2="563" y2="408" stroke="#888780" stroke-width="1.2" marker-end="url(#arr)" fill="none"/>

  <!-- ROW 3: PROPOSAL -->
  <rect x="175" y="226" width="160" height="44" rx="8" fill="#FAEEDA" stroke="#BA7517" stroke-width="0.75"/>
  <text x="255" y="248" text-anchor="middle" dominant-baseline="central" font-family="Arial, Helvetica, sans-serif" font-size="14px" font-weight="500" fill="#633806">PROPOSAL</text>

  <!-- Fan arrows: PROPOSAL → energy-loss processes -->
  <path d="M255 270 L255 292 L65 292 L65 316" stroke="#888780" stroke-width="1.2" fill="none" marker-end="url(#arr)"/>
  <path d="M255 270 L255 292 L160 292 L160 316" stroke="#888780" stroke-width="1.2" fill="none" marker-end="url(#arr)"/>
  <line x1="255" y1="270" x2="255" y2="316" stroke="#888780" stroke-width="1.2" marker-end="url(#arr)" fill="none"/>
  <path d="M255 270 L255 292 L350 292 L350 316" stroke="#888780" stroke-width="1.2" fill="none" marker-end="url(#arr)"/>
  <path d="M255 270 L255 292 L445 292 L445 316" stroke="#888780" stroke-width="1.2" fill="none" marker-end="url(#arr)"/>

  <!-- ROW 4: energy-loss process types -->
  <rect x="23" y="316" width="85" height="44" rx="8" fill="#FAECE7" stroke="#993C1D" stroke-width="0.75"/>
  <text x="65" y="338" text-anchor="middle" dominant-baseline="central" font-family="Arial, Helvetica, sans-serif" font-size="14px" font-weight="500" fill="#712B13">&#956;&#177; track</text>
  <rect x="118" y="316" width="85" height="44" rx="8" fill="#FAECE7" stroke="#993C1D" stroke-width="0.75"/>
  <text x="160" y="338" text-anchor="middle" dominant-baseline="central" font-family="Arial, Helvetica, sans-serif" font-size="14px" font-weight="500" fill="#712B13">Brems</text>
  <rect x="213" y="316" width="85" height="44" rx="8" fill="#FAECE7" stroke="#993C1D" stroke-width="0.75"/>
  <text x="255" y="338" text-anchor="middle" dominant-baseline="central" font-family="Arial, Helvetica, sans-serif" font-size="14px" font-weight="500" fill="#712B13">&#916;E</text>
  <rect x="308" y="316" width="85" height="44" rx="8" fill="#FAECE7" stroke="#993C1D" stroke-width="0.75"/>
  <text x="350" y="338" text-anchor="middle" dominant-baseline="central" font-family="Arial, Helvetica, sans-serif" font-size="14px" font-weight="500" fill="#712B13">PairProd</text>
  <rect x="403" y="316" width="85" height="44" rx="8" fill="#FAECE7" stroke="#993C1D" stroke-width="0.75"/>
  <text x="445" y="338" text-anchor="middle" dominant-baseline="central" font-family="Arial, Helvetica, sans-serif" font-size="14px" font-weight="500" fill="#712B13">NuclInt</text>

  <!-- Arrows: process types → clsim boxes -->
  <line x1="65" y1="360" x2="65" y2="408" stroke="#888780" stroke-width="1.2" marker-end="url(#arr)" fill="none"/>
  <line x1="160" y1="360" x2="160" y2="408" stroke="#888780" stroke-width="1.2" marker-end="url(#arr)" fill="none"/>
  <line x1="255" y1="360" x2="255" y2="408" stroke="#888780" stroke-width="1.2" marker-end="url(#arr)" fill="none"/>
  <line x1="350" y1="360" x2="350" y2="408" stroke="#888780" stroke-width="1.2" marker-end="url(#arr)" fill="none"/>
  <line x1="445" y1="360" x2="445" y2="408" stroke="#888780" stroke-width="1.2" marker-end="url(#arr)" fill="none"/>

  <!-- ROW 5: clsim / PPC boxes -->
  <rect x="23" y="408" width="85" height="56" rx="8" fill="#E1F5EE" stroke="#0F6E56" stroke-width="0.75"/>
  <text x="65" y="426" text-anchor="middle" dominant-baseline="central" font-family="Arial, Helvetica, sans-serif" font-size="14px" font-weight="500" fill="#085041">clsim</text>
  <text x="65" y="444" text-anchor="middle" dominant-baseline="central" font-family="Arial, Helvetica, sans-serif" font-size="12px" font-weight="400" fill="#0F6E56">muon-like</text>
  <rect x="118" y="408" width="85" height="56" rx="8" fill="#E1F5EE" stroke="#0F6E56" stroke-width="0.75"/>
  <text x="160" y="426" text-anchor="middle" dominant-baseline="central" font-family="Arial, Helvetica, sans-serif" font-size="14px" font-weight="500" fill="#085041">clsim</text>
  <text x="160" y="444" text-anchor="middle" dominant-baseline="central" font-family="Arial, Helvetica, sans-serif" font-size="12px" font-weight="400" fill="#0F6E56">EM cascade</text>
  <rect x="213" y="408" width="85" height="56" rx="8" fill="#E1F5EE" stroke="#0F6E56" stroke-width="0.75"/>
  <text x="255" y="426" text-anchor="middle" dominant-baseline="central" font-family="Arial, Helvetica, sans-serif" font-size="14px" font-weight="500" fill="#085041">clsim</text>
  <text x="255" y="444" text-anchor="middle" dominant-baseline="central" font-family="Arial, Helvetica, sans-serif" font-size="12px" font-weight="400" fill="#0F6E56">EM cascade</text>
  <rect x="308" y="408" width="85" height="56" rx="8" fill="#E1F5EE" stroke="#0F6E56" stroke-width="0.75"/>
  <text x="350" y="426" text-anchor="middle" dominant-baseline="central" font-family="Arial, Helvetica, sans-serif" font-size="14px" font-weight="500" fill="#085041">clsim</text>
  <text x="350" y="444" text-anchor="middle" dominant-baseline="central" font-family="Arial, Helvetica, sans-serif" font-size="12px" font-weight="400" fill="#0F6E56">EM cascade</text>
  <rect x="403" y="408" width="85" height="56" rx="8" fill="#E1F5EE" stroke="#0F6E56" stroke-width="0.75"/>
  <text x="445" y="426" text-anchor="middle" dominant-baseline="central" font-family="Arial, Helvetica, sans-serif" font-size="14px" font-weight="500" fill="#085041">clsim</text>
  <text x="445" y="444" text-anchor="middle" dominant-baseline="central" font-family="Arial, Helvetica, sans-serif" font-size="12px" font-weight="400" fill="#0F6E56">hadronic</text>
  <rect x="498" y="408" width="130" height="56" rx="8" fill="#E1F5EE" stroke="#0F6E56" stroke-width="0.75"/>
  <text x="563" y="426" text-anchor="middle" dominant-baseline="central" font-family="Arial, Helvetica, sans-serif" font-size="14px" font-weight="500" fill="#085041">clsim</text>
  <text x="563" y="444" text-anchor="middle" dominant-baseline="central" font-family="Arial, Helvetica, sans-serif" font-size="12px" font-weight="400" fill="#0F6E56">hadronic casc.</text>

  <!-- Legend -->
  <rect x="30" y="482" width="12" height="12" rx="3" fill="#EEEDFE" stroke="#534AB7" stroke-width="0.75"/>
  <text x="48" y="488" text-anchor="start" dominant-baseline="central" font-family="Arial, Helvetica, sans-serif" font-size="12px" font-weight="400" fill="#3C3489">LeptonInjector</text>
  <rect x="165" y="482" width="12" height="12" rx="3" fill="#FAEEDA" stroke="#BA7517" stroke-width="0.75"/>
  <text x="183" y="488" text-anchor="start" dominant-baseline="central" font-family="Arial, Helvetica, sans-serif" font-size="12px" font-weight="400" fill="#633806">PROPOSAL</text>
  <rect x="265" y="482" width="12" height="12" rx="3" fill="#FAECE7" stroke="#993C1D" stroke-width="0.75"/>
  <text x="283" y="488" text-anchor="start" dominant-baseline="central" font-family="Arial, Helvetica, sans-serif" font-size="12px" font-weight="400" fill="#712B13">Energy-loss processes</text>
  <rect x="445" y="482" width="12" height="12" rx="3" fill="#E1F5EE" stroke="#0F6E56" stroke-width="0.75"/>
  <text x="463" y="488" text-anchor="start" dominant-baseline="central" font-family="Arial, Helvetica, sans-serif" font-size="12px" font-weight="400" fill="#085041">clsim / PPC</text>

</svg>