<?xml version="1.0" encoding="utf-8" standalone="no"?>
<!DOCTYPE svg PUBLIC "-//W3C//DTD SVG 1.1//EN"
  "http://www.w3.org/Graphics/SVG/1.1/DTD/svg11.dtd">
<svg xmlns:xlink="http://www.w3.org/1999/xlink" width="496.8pt" height="424.8pt" viewBox="0 0 496.8 424.8" xmlns="http://www.w3.org/2000/svg" version="1.1">
 <metadata>
  <rdf:RDF xmlns:dc="http://purl.org/dc/elements/1.1/" xmlns:cc="http://creativecommons.org/ns#" xmlns:rdf="http://www.w3.org/1999/02/22-rdf-syntax-ns#">
   <cc:Work>
    <dc:type rdf:resource="http://purl.org/dc/dcmitype/StillImage"/>
    <dc:date>2026-05-19T00:17:43.219506</dc:date>
    <dc:format>image/svg+xml</dc:format>
    <dc:creator>
     <cc:Agent>
      <dc:title>Matplotlib v3.9.4, https://matplotlib.org/</dc:title>
     </cc:Agent>
    </dc:creator>
   </cc:Work>
  </rdf:RDF>
 </metadata>
 <defs>
  <style type="text/css">*{stroke-linejoin: round; stroke-linecap: butt}</style>
 </defs>
 <g id="figure_1">
  <g id="patch_1">
   <path d="M 0 424.8 
L 496.8 424.8 
L 496.8 0 
L 0 0 
z
" style="fill: #ffffff"/>
  </g>
  <g id="axes_1">
   <g id="patch_2">
    <path d="M 248.4 125.19 
C 288.059532 125.19 326.100052 122.487354 354.143576 117.677289 
C 382.187101 112.867224 397.944 106.34246 397.944 99.54 
C 397.944 92.73754 382.187101 86.212776 354.143576 81.402711 
C 326.100052 76.592646 288.059532 73.89 248.4 73.89 
C 208.740468 73.89 170.699948 76.592646 142.656424 81.402711 
C 114.612899 86.212776 98.856 92.73754 98.856 99.54 
C 98.856 106.34246 114.612899 112.867224 142.656424 117.677289 
C 170.699948 122.487354 208.740468 125.19 248.4 125.19 
L 248.4 125.19 
z
" clip-path="url(#p481ddb1960)" style="fill: none; stroke: #000000; stroke-width: 1.2; stroke-linejoin: miter"/>
   </g>
   <g id="line2d_1">
    <path d="M 397.944 315 
L 397.89189 314.32292 
L 397.735597 313.646312 
L 397.475229 312.970648 
L 397.110969 312.296398 
L 396.643069 311.624032 
L 396.071857 310.954018 
L 395.397729 310.286825 
L 394.621157 309.622916 
L 393.74268 308.962755 
L 392.762912 308.306801 
L 391.682535 307.655511 
L 390.502302 307.00934 
L 389.223035 306.368738 
L 387.845627 305.734151 
L 386.371037 305.106022 
L 384.800292 304.484788 
L 383.134488 303.870882 
L 381.374786 303.264732 
L 379.522411 302.666761 
L 377.578654 302.077385 
L 375.544871 301.497015 
L 373.422479 300.926055 
L 371.212956 300.364904 
L 368.917844 299.813952 
L 366.53874 299.273584 
L 364.077303 298.744176 
L 361.535249 298.226096 
L 358.91435 297.719707 
L 356.216431 297.22536 
L 353.443373 296.743401 
L 350.597108 296.274165 
L 347.679621 295.81798 
L 344.692944 295.375163 
L 341.639159 294.946022 
L 338.520394 294.530858 
L 335.338823 294.129959 
L 332.096663 293.743605 
L 328.796173 293.372064 
L 325.439653 293.015597 
L 322.029444 292.67445 
L 318.567921 292.348863 
L 315.057497 292.039062 
L 311.500618 291.745262 
L 307.899763 291.467669 
L 304.257442 291.206476 
L 300.576193 290.961866 
L 296.858581 290.734007 
L 293.107198 290.523061 
L 289.324658 290.329172 
L 285.513597 290.152477 
L 281.676671 289.993099 
L 277.816553 289.851148 
L 273.935935 289.726725 
L 270.03752 289.619914 
L 266.124026 289.530791 
L 262.19818 289.459418 
L 258.262717 289.405845 
L 254.320381 289.370109 
L 250.373919 289.352235 
L 246.426081 289.352235 
L 242.479619 289.370109 
L 238.537283 289.405845 
L 234.60182 289.459418 
L 230.675974 289.530791 
L 226.76248 289.619914 
L 222.864065 289.726725 
L 218.983447 289.851148 
L 215.123329 289.993099 
L 211.286403 290.152477 
L 207.475342 290.329172 
L 203.692802 290.523061 
L 199.941419 290.734007 
L 196.223807 290.961866 
L 192.542558 291.206476 
L 188.900237 291.467669 
L 185.299382 291.745262 
L 181.742503 292.039062 
L 178.232079 292.348863 
L 174.770556 292.67445 
L 171.360347 293.015597 
L 168.003827 293.372064 
L 164.703337 293.743605 
L 161.461177 294.129959 
L 158.279606 294.530858 
L 155.160841 294.946022 
L 152.107056 295.375163 
L 149.120379 295.81798 
L 146.202892 296.274165 
L 143.356627 296.743401 
L 140.583569 297.22536 
L 137.88565 297.719707 
L 135.264751 298.226096 
L 132.722697 298.744176 
L 130.26126 299.273584 
L 127.882156 299.813952 
L 125.587044 300.364904 
L 123.377521 300.926055 
L 121.255129 301.497015 
L 119.221346 302.077385 
L 117.277589 302.666761 
L 115.425214 303.264732 
L 113.665512 303.870882 
L 111.999708 304.484788 
L 110.428963 305.106022 
L 108.954373 305.734151 
L 107.576965 306.368738 
L 106.297698 307.00934 
L 105.117465 307.655511 
L 104.037088 308.306801 
L 103.05732 308.962755 
L 102.178843 309.622916 
L 101.402271 310.286825 
L 100.728143 310.954018 
L 100.156931 311.624032 
L 99.689031 312.296398 
L 99.324771 312.970648 
L 99.064403 313.646312 
L 98.90811 314.32292 
L 98.856 315 
" clip-path="url(#p481ddb1960)" style="fill: none; stroke-dasharray: 7.2,4.8; stroke-dashoffset: 0; stroke: #000000; stroke-width: 1.2"/>
   </g>
   <g id="line2d_2">
    <path d="M 98.856 315 
L 98.90811 315.67708 
L 99.064403 316.353688 
L 99.324771 317.029352 
L 99.689031 317.703602 
L 100.156931 318.375968 
L 100.728143 319.045982 
L 101.402271 319.713175 
L 102.178843 320.377084 
L 103.05732 321.037245 
L 104.037088 321.693199 
L 105.117465 322.344489 
L 106.297698 322.99066 
L 107.576965 323.631262 
L 108.954373 324.265849 
L 110.428963 324.893978 
L 111.999708 325.515212 
L 113.665512 326.129118 
L 115.425214 326.735268 
L 117.277589 327.333239 
L 119.221346 327.922615 
L 121.255129 328.502985 
L 123.377521 329.073945 
L 125.587044 329.635096 
L 127.882156 330.186048 
L 130.26126 330.726416 
L 132.722697 331.255824 
L 135.264751 331.773904 
L 137.88565 332.280293 
L 140.583569 332.77464 
L 143.356627 333.256599 
L 146.202892 333.725835 
L 149.120379 334.18202 
L 152.107056 334.624837 
L 155.160841 335.053978 
L 158.279606 335.469142 
L 161.461177 335.870041 
L 164.703337 336.256395 
L 168.003827 336.627936 
L 171.360347 336.984403 
L 174.770556 337.32555 
L 178.232079 337.651137 
L 181.742503 337.960938 
L 185.299382 338.254738 
L 188.900237 338.532331 
L 192.542558 338.793524 
L 196.223807 339.038134 
L 199.941419 339.265993 
L 203.692802 339.476939 
L 207.475342 339.670828 
L 211.286403 339.847523 
L 215.123329 340.006901 
L 218.983447 340.148852 
L 222.864065 340.273275 
L 226.76248 340.380086 
L 230.675974 340.469209 
L 234.60182 340.540582 
L 238.537283 340.594155 
L 242.479619 340.629891 
L 246.426081 340.647765 
L 250.373919 340.647765 
L 254.320381 340.629891 
L 258.262717 340.594155 
L 262.19818 340.540582 
L 266.124026 340.469209 
L 270.03752 340.380086 
L 273.935935 340.273275 
L 277.816553 340.148852 
L 281.676671 340.006901 
L 285.513597 339.847523 
L 289.324658 339.670828 
L 293.107198 339.476939 
L 296.858581 339.265993 
L 300.576193 339.038134 
L 304.257442 338.793524 
L 307.899763 338.532331 
L 311.500618 338.254738 
L 315.057497 337.960938 
L 318.567921 337.651137 
L 322.029444 337.32555 
L 325.439653 336.984403 
L 328.796173 336.627936 
L 332.096663 336.256395 
L 335.338823 335.870041 
L 338.520394 335.469142 
L 341.639159 335.053978 
L 344.692944 334.624837 
L 347.679621 334.18202 
L 350.597108 333.725835 
L 353.443373 333.256599 
L 356.216431 332.77464 
L 358.91435 332.280293 
L 361.535249 331.773904 
L 364.077303 331.255824 
L 366.53874 330.726416 
L 368.917844 330.186048 
L 371.212956 329.635096 
L 373.422479 329.073945 
L 375.544871 328.502985 
L 377.578654 327.922615 
L 379.522411 327.333239 
L 381.374786 326.735268 
L 383.134488 326.129118 
L 384.800292 325.515212 
L 386.371037 324.893978 
L 387.845627 324.265849 
L 389.223035 323.631262 
L 390.502302 322.99066 
L 391.682535 322.344489 
L 392.762912 321.693199 
L 393.74268 321.037245 
L 394.621157 320.377084 
L 395.397729 319.713175 
L 396.071857 319.045982 
L 396.643069 318.375968 
L 397.110969 317.703602 
L 397.475229 317.029352 
L 397.735597 316.353688 
L 397.89189 315.67708 
L 397.944 315 
" clip-path="url(#p481ddb1960)" style="fill: none; stroke: #000000; stroke-width: 1.2; stroke-linecap: square"/>
   </g>
   <g id="line2d_3">
    <path d="M 98.856 315 
L 98.856 99.54 
" clip-path="url(#p481ddb1960)" style="fill: none; stroke: #000000; stroke-opacity: 0.6; stroke-linecap: square"/>
   </g>
   <g id="line2d_4">
    <path d="M 397.944 315 
L 397.944 99.54 
" clip-path="url(#p481ddb1960)" style="fill: none; stroke: #000000; stroke-opacity: 0.6; stroke-linecap: square"/>
   </g>
   <g id="line2d_5">
    <path d="M 28.908 309.083952 
L 98.856 279.09 
" clip-path="url(#p481ddb1960)" style="fill: none; stroke: #000000; stroke-width: 2.4; stroke-linecap: square"/>
   </g>
   <g id="line2d_6">
    <path d="M 397.944 150.84 
L 477.54 116.708952 
" clip-path="url(#p481ddb1960)" style="fill: none; stroke: #000000; stroke-width: 2.4; stroke-linecap: square"/>
   </g>
   <g id="line2d_7">
    <path d="M 98.856 279.09 
L 397.944 150.84 
" clip-path="url(#p481ddb1960)" style="fill: none; stroke: #ff7f0e; stroke-width: 3.2; stroke-linecap: square"/>
   </g>
   <g id="text_1">
    <!-- $p_{\mathrm{entry}}$ -->
    <g transform="translate(43.38 266.265) scale(0.2 -0.2)">
     <defs>
      <path id="DejaVuSans-Oblique-70" d="M 3175 2156 
Q 3175 2616 2975 2859 
Q 2775 3103 2400 3103 
Q 2144 3103 1911 2972 
Q 1678 2841 1497 2591 
Q 1319 2344 1212 1994 
Q 1106 1644 1106 1300 
Q 1106 863 1306 627 
Q 1506 391 1875 391 
Q 2147 391 2380 519 
Q 2613 647 2778 891 
Q 2956 1147 3065 1494 
Q 3175 1841 3175 2156 
z
M 1394 2969 
Q 1625 3272 1939 3428 
Q 2253 3584 2638 3584 
Q 3175 3584 3472 3232 
Q 3769 2881 3769 2247 
Q 3769 1728 3584 1258 
Q 3400 788 3053 416 
Q 2822 169 2531 39 
Q 2241 -91 1919 -91 
Q 1547 -91 1294 64 
Q 1041 219 916 525 
L 556 -1331 
L -19 -1331 
L 922 3500 
L 1497 3500 
L 1394 2969 
z
" transform="scale(0.015625)"/>
      <path id="DejaVuSans-65" d="M 3597 1894 
L 3597 1613 
L 953 1613 
Q 991 1019 1311 708 
Q 1631 397 2203 397 
Q 2534 397 2845 478 
Q 3156 559 3463 722 
L 3463 178 
Q 3153 47 2828 -22 
Q 2503 -91 2169 -91 
Q 1331 -91 842 396 
Q 353 884 353 1716 
Q 353 2575 817 3079 
Q 1281 3584 2069 3584 
Q 2775 3584 3186 3129 
Q 3597 2675 3597 1894 
z
M 3022 2063 
Q 3016 2534 2758 2815 
Q 2500 3097 2075 3097 
Q 1594 3097 1305 2825 
Q 1016 2553 972 2059 
L 3022 2063 
z
" transform="scale(0.015625)"/>
      <path id="DejaVuSans-6e" d="M 3513 2113 
L 3513 0 
L 2938 0 
L 2938 2094 
Q 2938 2591 2744 2837 
Q 2550 3084 2163 3084 
Q 1697 3084 1428 2787 
Q 1159 2491 1159 1978 
L 1159 0 
L 581 0 
L 581 3500 
L 1159 3500 
L 1159 2956 
Q 1366 3272 1645 3428 
Q 1925 3584 2291 3584 
Q 2894 3584 3203 3211 
Q 3513 2838 3513 2113 
z
" transform="scale(0.015625)"/>
      <path id="DejaVuSans-74" d="M 1172 4494 
L 1172 3500 
L 2356 3500 
L 2356 3053 
L 1172 3053 
L 1172 1153 
Q 1172 725 1289 603 
Q 1406 481 1766 481 
L 2356 481 
L 2356 0 
L 1766 0 
Q 1100 0 847 248 
Q 594 497 594 1153 
L 594 3053 
L 172 3053 
L 172 3500 
L 594 3500 
L 594 4494 
L 1172 4494 
z
" transform="scale(0.015625)"/>
      <path id="DejaVuSans-72" d="M 2631 2963 
Q 2534 3019 2420 3045 
Q 2306 3072 2169 3072 
Q 1681 3072 1420 2755 
Q 1159 2438 1159 1844 
L 1159 0 
L 581 0 
L 581 3500 
L 1159 3500 
L 1159 2956 
Q 1341 3275 1631 3429 
Q 1922 3584 2338 3584 
Q 2397 3584 2469 3576 
Q 2541 3569 2628 3553 
L 2631 2963 
z
" transform="scale(0.015625)"/>
      <path id="DejaVuSans-79" d="M 2059 -325 
Q 1816 -950 1584 -1140 
Q 1353 -1331 966 -1331 
L 506 -1331 
L 506 -850 
L 844 -850 
Q 1081 -850 1212 -737 
Q 1344 -625 1503 -206 
L 1606 56 
L 191 3500 
L 800 3500 
L 1894 763 
L 2988 3500 
L 3597 3500 
L 2059 -325 
z
" transform="scale(0.015625)"/>
     </defs>
     <use xlink:href="#DejaVuSans-Oblique-70"/>
     <use xlink:href="#DejaVuSans-65" transform="translate(63.476562 -16.40625) scale(0.7)"/>
     <use xlink:href="#DejaVuSans-6e" transform="translate(106.542969 -16.40625) scale(0.7)"/>
     <use xlink:href="#DejaVuSans-74" transform="translate(150.908203 -16.40625) scale(0.7)"/>
     <use xlink:href="#DejaVuSans-72" transform="translate(178.354492 -16.40625) scale(0.7)"/>
     <use xlink:href="#DejaVuSans-79" transform="translate(207.133789 -16.40625) scale(0.7)"/>
    </g>
   </g>
   <g id="text_2">
    <!-- $p_{\mathrm{exit}}$ -->
    <g transform="translate(419.652 161.1) scale(0.2 -0.2)">
     <defs>
      <path id="DejaVuSans-78" d="M 3513 3500 
L 2247 1797 
L 3578 0 
L 2900 0 
L 1881 1375 
L 863 0 
L 184 0 
L 1544 1831 
L 300 3500 
L 978 3500 
L 1906 2253 
L 2834 3500 
L 3513 3500 
z
" transform="scale(0.015625)"/>
      <path id="DejaVuSans-69" d="M 603 3500 
L 1178 3500 
L 1178 0 
L 603 0 
L 603 3500 
z
M 603 4863 
L 1178 4863 
L 1178 4134 
L 603 4134 
L 603 4863 
z
" transform="scale(0.015625)"/>
     </defs>
     <use xlink:href="#DejaVuSans-Oblique-70"/>
     <use xlink:href="#DejaVuSans-65" transform="translate(63.476562 -16.40625) scale(0.7)"/>
     <use xlink:href="#DejaVuSans-78" transform="translate(106.542969 -16.40625) scale(0.7)"/>
     <use xlink:href="#DejaVuSans-69" transform="translate(147.96875 -16.40625) scale(0.7)"/>
     <use xlink:href="#DejaVuSans-74" transform="translate(167.416992 -16.40625) scale(0.7)"/>
    </g>
   </g>
   <g id="patch_3">
    <path d="M 265.123398 170.575073 
Q 266.338569 187.634379 267.553741 204.693684 
" style="fill: none; stroke: #000000; stroke-linecap: round"/>
   </g>
   <g id="text_3">
    <!-- interaction vertex $\vec{v}$ -->
    <g transform="translate(195.336 163.665) scale(0.14 -0.14)">
     <defs>
      <path id="DejaVuSans-61" d="M 2194 1759 
Q 1497 1759 1228 1600 
Q 959 1441 959 1056 
Q 959 750 1161 570 
Q 1363 391 1709 391 
Q 2188 391 2477 730 
Q 2766 1069 2766 1631 
L 2766 1759 
L 2194 1759 
z
M 3341 1997 
L 3341 0 
L 2766 0 
L 2766 531 
Q 2569 213 2275 61 
Q 1981 -91 1556 -91 
Q 1019 -91 701 211 
Q 384 513 384 1019 
Q 384 1609 779 1909 
Q 1175 2209 1959 2209 
L 2766 2209 
L 2766 2266 
Q 2766 2663 2505 2880 
Q 2244 3097 1772 3097 
Q 1472 3097 1187 3025 
Q 903 2953 641 2809 
L 641 3341 
Q 956 3463 1253 3523 
Q 1550 3584 1831 3584 
Q 2591 3584 2966 3190 
Q 3341 2797 3341 1997 
z
" transform="scale(0.015625)"/>
      <path id="DejaVuSans-63" d="M 3122 3366 
L 3122 2828 
Q 2878 2963 2633 3030 
Q 2388 3097 2138 3097 
Q 1578 3097 1268 2742 
Q 959 2388 959 1747 
Q 959 1106 1268 751 
Q 1578 397 2138 397 
Q 2388 397 2633 464 
Q 2878 531 3122 666 
L 3122 134 
Q 2881 22 2623 -34 
Q 2366 -91 2075 -91 
Q 1284 -91 818 406 
Q 353 903 353 1747 
Q 353 2603 823 3093 
Q 1294 3584 2113 3584 
Q 2378 3584 2631 3529 
Q 2884 3475 3122 3366 
z
" transform="scale(0.015625)"/>
      <path id="DejaVuSans-6f" d="M 1959 3097 
Q 1497 3097 1228 2736 
Q 959 2375 959 1747 
Q 959 1119 1226 758 
Q 1494 397 1959 397 
Q 2419 397 2687 759 
Q 2956 1122 2956 1747 
Q 2956 2369 2687 2733 
Q 2419 3097 1959 3097 
z
M 1959 3584 
Q 2709 3584 3137 3096 
Q 3566 2609 3566 1747 
Q 3566 888 3137 398 
Q 2709 -91 1959 -91 
Q 1206 -91 779 398 
Q 353 888 353 1747 
Q 353 2609 779 3096 
Q 1206 3584 1959 3584 
z
" transform="scale(0.015625)"/>
      <path id="DejaVuSans-20" transform="scale(0.015625)"/>
      <path id="DejaVuSans-76" d="M 191 3500 
L 800 3500 
L 1894 563 
L 2988 3500 
L 3597 3500 
L 2284 0 
L 1503 0 
L 191 3500 
z
" transform="scale(0.015625)"/>
      <path id="DejaVuSans-20d7" d="M -3009 4066 
L -3009 4378 
L -694 4378 
L -1106 4863 
L -713 4863 
L -166 4222 
L -713 3581 
L -1106 3581 
L -694 4066 
L -3009 4066 
z
" transform="scale(0.015625)"/>
      <path id="DejaVuSans-Oblique-76" d="M 459 3500 
L 1069 3500 
L 1581 525 
L 3256 3500 
L 3866 3500 
L 1875 0 
L 1100 0 
L 459 3500 
z
" transform="scale(0.015625)"/>
     </defs>
     <use xlink:href="#DejaVuSans-69" transform="translate(0 0.78125)"/>
     <use xlink:href="#DejaVuSans-6e" transform="translate(27.783203 0.78125)"/>
     <use xlink:href="#DejaVuSans-74" transform="translate(91.162109 0.78125)"/>
     <use xlink:href="#DejaVuSans-65" transform="translate(130.371094 0.78125)"/>
     <use xlink:href="#DejaVuSans-72" transform="translate(191.894531 0.78125)"/>
     <use xlink:href="#DejaVuSans-61" transform="translate(233.007812 0.78125)"/>
     <use xlink:href="#DejaVuSans-63" transform="translate(294.287109 0.78125)"/>
     <use xlink:href="#DejaVuSans-74" transform="translate(349.267578 0.78125)"/>
     <use xlink:href="#DejaVuSans-69" transform="translate(388.476562 0.78125)"/>
     <use xlink:href="#DejaVuSans-6f" transform="translate(416.259766 0.78125)"/>
     <use xlink:href="#DejaVuSans-6e" transform="translate(477.441406 0.78125)"/>
     <use xlink:href="#DejaVuSans-20" transform="translate(540.820312 0.78125)"/>
     <use xlink:href="#DejaVuSans-76" transform="translate(572.607422 0.78125)"/>
     <use xlink:href="#DejaVuSans-65" transform="translate(631.787109 0.78125)"/>
     <use xlink:href="#DejaVuSans-72" transform="translate(693.310547 0.78125)"/>
     <use xlink:href="#DejaVuSans-74" transform="translate(734.423828 0.78125)"/>
     <use xlink:href="#DejaVuSans-65" transform="translate(773.632812 0.78125)"/>
     <use xlink:href="#DejaVuSans-78" transform="translate(835.15625 0.78125)"/>
     <use xlink:href="#DejaVuSans-20" transform="translate(894.335938 0.78125)"/>
     <use xlink:href="#DejaVuSans-20d7" transform="translate(987.933594 12.015625)"/>
     <use xlink:href="#DejaVuSans-Oblique-76" transform="translate(926.123047 0.78125)"/>
    </g>
   </g>
   <g id="text_4">
    <!-- $L_{\mathrm{eff}} = |\vec{p}_{\mathrm{exit}} - \vec{p}_{\mathrm{entry}}|$ -->
    <g style="fill: #ff7f0e" transform="translate(227.886084 253.904713) rotate(-25) scale(0.16 -0.16)">
     <defs>
      <path id="DejaVuSans-Oblique-4c" d="M 1075 4666 
L 1709 4666 
L 909 525 
L 3181 525 
L 3078 0 
L 172 0 
L 1075 4666 
z
" transform="scale(0.015625)"/>
      <path id="DejaVuSans-66" d="M 2375 4863 
L 2375 4384 
L 1825 4384 
Q 1516 4384 1395 4259 
Q 1275 4134 1275 3809 
L 1275 3500 
L 2222 3500 
L 2222 3053 
L 1275 3053 
L 1275 0 
L 697 0 
L 697 3053 
L 147 3053 
L 147 3500 
L 697 3500 
L 697 3744 
Q 697 4328 969 4595 
Q 1241 4863 1831 4863 
L 2375 4863 
z
" transform="scale(0.015625)"/>
      <path id="DejaVuSans-3d" d="M 678 2906 
L 4684 2906 
L 4684 2381 
L 678 2381 
L 678 2906 
z
M 678 1631 
L 4684 1631 
L 4684 1100 
L 678 1100 
L 678 1631 
z
" transform="scale(0.015625)"/>
      <path id="DejaVuSans-7c" d="M 1344 4891 
L 1344 -1509 
L 813 -1509 
L 813 4891 
L 1344 4891 
z
" transform="scale(0.015625)"/>
      <path id="DejaVuSans-2212" d="M 678 2272 
L 4684 2272 
L 4684 1741 
L 678 1741 
L 678 2272 
z
" transform="scale(0.015625)"/>
     </defs>
     <use xlink:href="#DejaVuSans-Oblique-4c" transform="translate(0 0.46875)"/>
     <use xlink:href="#DejaVuSans-65" transform="translate(55.712891 -15.9375) scale(0.7)"/>
     <use xlink:href="#DejaVuSans-66" transform="translate(98.779297 -15.9375) scale(0.7)"/>
     <use xlink:href="#DejaVuSans-66" transform="translate(123.422852 -15.9375) scale(0.7)"/>
     <use xlink:href="#DejaVuSans-3d" transform="translate(170.283203 0.46875)"/>
     <use xlink:href="#DejaVuSans-7c" transform="translate(273.554688 0.46875)"/>
     <use xlink:href="#DejaVuSans-20d7" transform="translate(372.130859 13.015625)"/>
     <use xlink:href="#DejaVuSans-Oblique-70" transform="translate(307.246094 0.46875)"/>
     <use xlink:href="#DejaVuSans-65" transform="translate(371.679688 -15.9375) scale(0.7)"/>
     <use xlink:href="#DejaVuSans-78" transform="translate(414.746094 -15.9375) scale(0.7)"/>
     <use xlink:href="#DejaVuSans-69" transform="translate(456.171875 -15.9375) scale(0.7)"/>
     <use xlink:href="#DejaVuSans-74" transform="translate(475.620117 -15.9375) scale(0.7)"/>
     <use xlink:href="#DejaVuSans-2212" transform="translate(525.283203 0.46875)"/>
     <use xlink:href="#DejaVuSans-20d7" transform="translate(693.439453 13.015625)"/>
     <use xlink:href="#DejaVuSans-Oblique-70" transform="translate(628.554688 0.46875)"/>
     <use xlink:href="#DejaVuSans-65" transform="translate(692.988281 -15.9375) scale(0.7)"/>
     <use xlink:href="#DejaVuSans-6e" transform="translate(736.054688 -15.9375) scale(0.7)"/>
     <use xlink:href="#DejaVuSans-74" transform="translate(780.419922 -15.9375) scale(0.7)"/>
     <use xlink:href="#DejaVuSans-72" transform="translate(807.866211 -15.9375) scale(0.7)"/>
     <use xlink:href="#DejaVuSans-79" transform="translate(836.645508 -15.9375) scale(0.7)"/>
     <use xlink:href="#DejaVuSans-7c" transform="translate(880.805664 0.46875)"/>
    </g>
   </g>
   <g id="PathCollection_1">
    <defs>
     <path id="m920601a060" d="M 0 4.1833 
C 1.109424 4.1833 2.173559 3.742521 2.95804 2.95804 
C 3.742521 2.173559 4.1833 1.109424 4.1833 0 
C 4.1833 -1.109424 3.742521 -2.173559 2.95804 -2.95804 
C 2.173559 -3.742521 1.109424 -4.1833 0 -4.1833 
C -1.109424 -4.1833 -2.173559 -3.742521 -2.95804 -2.95804 
C -3.742521 -2.173559 -4.1833 -1.109424 -4.1833 0 
C -4.1833 1.109424 -3.742521 2.173559 -2.95804 2.95804 
C -2.173559 3.742521 -1.109424 4.1833 0 4.1833 
z
" style="stroke: #000000"/>
    </defs>
    <g clip-path="url(#p481ddb1960)">
     <use xlink:href="#m920601a060" x="98.856" y="279.09" style="stroke: #000000"/>
    </g>
   </g>
   <g id="PathCollection_2">
    <g clip-path="url(#p481ddb1960)">
     <use xlink:href="#m920601a060" x="267.696" y="206.690806" style="stroke: #000000"/>
    </g>
   </g>
   <g id="PathCollection_3">
    <g clip-path="url(#p481ddb1960)">
     <use xlink:href="#m920601a060" x="397.944" y="150.84" style="stroke: #000000"/>
    </g>
   </g>
  </g>
 </g>
 <defs>
  <clipPath id="p481ddb1960">
   <rect x="7.2" y="7.2" width="482.4" height="410.4"/>
  </clipPath>
 </defs>
</svg>
